<?xml version="1.0" encoding="UTF-8"?>
<!DOCTYPE svg PUBLIC "-//W3C//DTD SVG 1.1//EN" "http://www.w3.org/Graphics/SVG/1.1/DTD/svg11.dtd">
<!-- Creator: CorelDRAW 2020 (64-Bit) -->
<svg xmlns="http://www.w3.org/2000/svg" xml:space="preserve" width="300px" height="54px" version="1.1" style="shape-rendering:geometricPrecision; text-rendering:geometricPrecision; image-rendering:optimizeQuality; fill-rule:evenodd; clip-rule:evenodd" viewBox="0 0 15.193 2.726" xmlns:xlink="http://www.w3.org/1999/xlink" xmlns:xodm="http://www.corel.com/coreldraw/odm/2003">
    <defs>
        <style type="text/css">
            <![CDATA[
    .fil4 {fill:#FEFEFE}
    .fil3 {fill:black}
    .fil0 {fill:#00AFF0}
    .fil2 {fill:#EB268F}
    .fil1 {fill:#FFF112}
    .fil6 {fill:#2B2A29;fill-rule:nonzero}
    .fil5 {fill:black;fill-rule:nonzero}
   ]]>
        </style>
    </defs>
    <g id="Layer_x0020_1">
        <metadata id="CorelCorpID_0Corel-Layer" />
        <g id="_2233990116176">
            <polygon class="fil0" points="1.363,0 2.008,0.645 1.363,1.289 0.718,0.645 " />
            <polygon class="fil1" points="2.082,0.719 2.726,1.363 2.082,2.008 1.437,1.363 " />
            <polygon class="fil2" points="0.645,0.718 1.289,1.363 0.645,2.008 0,1.363 " />
            <polygon class="fil3" points="1.363,1.437 2.008,2.082 1.363,2.726 0.719,2.082 " />
            <path class="fil4" d="M1.3 0.613l-0.136 0.001c-0.006,0.035 -0.005,0.04 -0.001,0.077l0.137 0.003c0.007,0.044 -0.006,0.123 0.009,0.136 0.002,0.002 0.064,0.02 0.071,-0.009 0.005,-0.016 0,-0.094 0.003,-0.126 0.034,-0.005 0.104,0.001 0.122,-0.001 0.024,-0.003 0.019,-0.001 0.019,-0.055 0,-0.053 -0.057,-0.012 -0.141,-0.028l-0.001 -0.138c-0.015,-0.001 -0.035,-0.002 -0.051,-0.002 -0.053,0.001 -0.019,0.039 -0.031,0.142l0 0z" />
            <path class="fil4" d="M1.93 1.261c0.014,0.033 0.074,0.068 0.092,0.102 -0.018,0.034 -0.078,0.07 -0.092,0.102 0.008,0.016 0.034,0.043 0.052,0.051 0.034,-0.018 0.07,-0.077 0.103,-0.094l0.094 0.094c0.022,-0.006 0.048,-0.033 0.055,-0.051 -0.012,-0.029 -0.073,-0.071 -0.093,-0.102 0.02,-0.028 0.084,-0.074 0.093,-0.102 -0.008,-0.017 -0.034,-0.044 -0.054,-0.05l-0.095 0.094c-0.034,-0.016 -0.066,-0.074 -0.103,-0.094 -0.018,0.007 -0.044,0.035 -0.052,0.05l0 0z" />
            <path class="fil4" d="M1.216 2.051c-0.006,0.028 -0.005,0.035 -0.003,0.062 0.018,0.004 0.281,0.005 0.298,0 0.006,-0.009 0.004,-0.027 0.004,-0.04 0,-0.023 0,-0.025 -0.024,-0.025 -0.046,-0.001 -0.257,-0.003 -0.275,0.003z" />
            <g>
                <path class="fil4" d="M0.446 1.348l0.002 0.057c0.027,0.007 0.255,0.004 0.315,0.004 0.089,0 0.08,0.011 0.08,-0.061 0,-0.026 -0.001,-0.028 -0.027,-0.028l-0.342 0c-0.028,0 -0.028,-0.001 -0.028,0.028l0 0z" />
                <path class="fil4" d="M0.604 1.226l0.001 0.053c0.014,0.003 0.037,0.004 0.053,0.003 0.031,-0.002 0.028,-0.009 0.028,-0.051 0,-0.034 -0.004,-0.031 -0.054,-0.031 -0.025,0 -0.028,0 -0.028,0.026l0 0z" />
                <path class="fil4" d="M0.609 1.448l-0.003 0.077 0.076 0.001 0.004 -0.052c-0.001,-0.033 -0.009,-0.03 -0.077,-0.026z" />
            </g>
        </g>
        <path class="fil5" d="M3.163 0.847l0 1.034 0.507 0c0.244,0 0.397,-0.111 0.397,-0.287 0,-0.134 -0.082,-0.236 -0.212,-0.261 0.109,-0.031 0.177,-0.118 0.177,-0.228 0,-0.158 -0.148,-0.258 -0.38,-0.258l-0.489 0zm0.262 0.201l0.212 0c0.077,0 0.126,0.038 0.126,0.105 0,0.066 -0.049,0.108 -0.126,0.108l-0.212 0 0 -0.213zm0 0.402l0.212 0c0.098,0 0.158,0.042 0.158,0.112 0,0.074 -0.06,0.117 -0.158,0.117l-0.212 0 0 -0.229zm1.481 0.24l0.074 0.191 0.281 0 -0.436 -1.034 -0.27 0 -0.446 1.034 0.27 0 0.075 -0.191 0.452 0zm-0.076 -0.199l-0.299 0 0.151 -0.383 0.148 0.383zm0.92 -0.656c-0.248,0 -0.412,0.121 -0.412,0.312 0,0.366 0.546,0.257 0.546,0.44 0,0.059 -0.051,0.09 -0.134,0.09 -0.108,0 -0.267,-0.062 -0.374,-0.155l-0.102 0.202c0.123,0.101 0.3,0.166 0.473,0.166 0.231,0 0.414,-0.109 0.414,-0.316 0,-0.374 -0.547,-0.272 -0.547,-0.451 0,-0.05 0.046,-0.075 0.114,-0.075 0.084,0 0.221,0.044 0.331,0.108l0.099 -0.206c-0.107,-0.069 -0.259,-0.115 -0.408,-0.115zm1.228 1.046l0.314 0 -0.409 -0.606 0.384 -0.428 -0.304 0 -0.396 0.448 0 -0.448 -0.263 0 0 1.034 0.263 0 0 -0.254 0.137 -0.152 0.274 0.406zm0.693 0l0 -1.034 -0.263 0 0 1.034 0.263 0zm0.573 -1.034l0 1.034 0.198 0 0 -0.42 0.515 0 0 0.42 0.198 0 0 -1.034 -0.198 0 0 0.442 -0.515 0 0 -0.442 -0.198 0zm1.167 0l0 1.034 0.776 0 0 -0.173 -0.578 0 0 -0.26 0.502 0 0 -0.173 -0.502 0 0 -0.255 0.56 0 0 -0.173 -0.758 0zm1.627 0.272l0.079 -0.172c-0.099,-0.065 -0.236,-0.109 -0.373,-0.109 -0.232,0 -0.388,0.115 -0.388,0.295 0,0.368 0.556,0.246 0.556,0.461 0,0.073 -0.067,0.114 -0.177,0.114 -0.111,0 -0.252,-0.057 -0.358,-0.152l-0.083 0.167c0.111,0.099 0.272,0.165 0.438,0.165 0.227,0 0.396,-0.112 0.396,-0.305 0.001,-0.371 -0.554,-0.257 -0.554,-0.467 0,-0.064 0.06,-0.098 0.153,-0.098 0.08,0 0.2,0.034 0.311,0.101zm1.035 0.762l0.213 0 -0.448 -1.034 -0.205 0 -0.454 1.034 0.206 0 0.091 -0.219 0.506 0 0.091 0.219zm-0.526 -0.389l0.183 -0.434 0.181 0.434 -0.364 0zm1.288 -0.645l-0.424 0 0 1.034 0.198 0 0 -0.304 0.226 0c0.26,0 0.41,-0.138 0.41,-0.374 0,-0.228 -0.15,-0.356 -0.41,-0.356zm-0.01 0.555l-0.216 0 0 -0.382 0.216 0c0.148,0 0.232,0.062 0.232,0.189 0,0.13 -0.084,0.193 -0.232,0.193zm0.584 -0.555l0 1.034 0.644 0 0 -0.179 -0.446 0 0 -0.855 -0.198 0zm1.572 1.034l0.212 0 -0.447 -1.034 -0.206 0 -0.453 1.034 0.205 0 0.092 -0.219 0.505 0 0.092 0.219zm-0.526 -0.389l0.183 -0.434 0.18 0.434 -0.363 0z" />
        <path class="fil6" d="M5.747 2.096c-0.118,0 -0.211,0.089 -0.211,0.203 0,0.114 0.093,0.205 0.211,0.205 0.118,0 0.212,-0.091 0.212,-0.205 0,-0.114 -0.094,-0.203 -0.212,-0.203zm0 0.044c0.09,0 0.164,0.07 0.164,0.159 0,0.089 -0.074,0.16 -0.164,0.16 -0.09,0 -0.165,-0.071 -0.165,-0.16 0,-0.089 0.075,-0.159 0.165,-0.159zm0.538 0.055c-0.056,0.001 -0.097,0.023 -0.118,0.069l0 -0.067 -0.045 0 0 0.304 0.045 0 0 -0.163c0.005,-0.058 0.042,-0.097 0.102,-0.098 0.054,0 0.086,0.032 0.086,0.086l0 0.175 0.045 0 0 -0.187c0,-0.074 -0.042,-0.119 -0.115,-0.119zm0.349 0.306l0 -0.428 -0.045 0 0 0.428 0.045 0zm0.22 -0.422c-0.017,0 -0.03,0.013 -0.03,0.031 0,0.018 0.013,0.031 0.03,0.031 0.016,0 0.029,-0.013 0.029,-0.031 0,-0.018 -0.013,-0.031 -0.029,-0.031zm0.022 0.422l0 -0.304 -0.044 0 0 0.304 0.044 0zm0.358 -0.306c-0.055,0.001 -0.096,0.023 -0.118,0.069l0 -0.067 -0.045 0 0 0.304 0.045 0 0 -0.163c0.006,-0.058 0.042,-0.097 0.102,-0.098 0.054,0 0.087,0.032 0.087,0.086l0 0.175 0.045 0 0 -0.187c0,-0.074 -0.043,-0.119 -0.116,-0.119zm0.421 0.001c-0.088,0 -0.15,0.063 -0.15,0.153 0,0.091 0.061,0.154 0.151,0.154 0.051,0 0.093,-0.018 0.122,-0.051l-0.024 -0.026c-0.024,0.024 -0.057,0.038 -0.095,0.038 -0.058,0 -0.102,-0.038 -0.11,-0.097l0.248 0c0.005,-0.104 -0.043,-0.172 -0.142,-0.171zm-0.106 0.134c0.007,-0.058 0.049,-0.095 0.106,-0.095 0.06,0 0.099,0.037 0.102,0.095l-0.208 0zm0.576 -0.233l0 0.404 0.161 0c0.119,0 0.21,-0.087 0.21,-0.202 0,-0.115 -0.09,-0.202 -0.208,-0.202l-0.163 0zm0.046 0.045l0.116 0c0.09,0 0.162,0.067 0.162,0.158 0,0.09 -0.07,0.157 -0.16,0.157l-0.118 0 0 -0.315zm0.51 -0.063c-0.017,0 -0.029,0.013 -0.029,0.031 0,0.018 0.012,0.031 0.029,0.031 0.017,0 0.029,-0.013 0.029,-0.031 0,-0.018 -0.012,-0.031 -0.029,-0.031zm0.023 0.422l0 -0.304 -0.045 0 0 0.304 0.045 0zm0.215 -0.423c-0.017,0 -0.03,0.014 -0.03,0.032 0,0.018 0.013,0.032 0.03,0.032 0.018,0 0.031,-0.014 0.031,-0.032 0,-0.018 -0.013,-0.032 -0.031,-0.032zm0.023 0.119l-0.045 0 0 0.322c0,0.037 -0.017,0.054 -0.044,0.054 -0.015,0 -0.031,-0.006 -0.044,-0.016l-0.016 0.037c0.017,0.013 0.04,0.021 0.062,0.021 0.047,0.001 0.087,-0.032 0.087,-0.102l0 -0.316zm0.218 -0.118c-0.017,0 -0.029,0.013 -0.029,0.031 0,0.018 0.012,0.031 0.029,0.031 0.017,0 0.029,-0.013 0.029,-0.031 0,-0.018 -0.012,-0.031 -0.029,-0.031zm0.022 0.422l0 -0.304 -0.044 0 0 0.304 0.044 0zm0.34 -0.057c-0.017,0.011 -0.033,0.016 -0.049,0.016 -0.026,0 -0.04,-0.014 -0.04,-0.051l0 -0.166 0.096 0 0 -0.037 -0.096 0.001 0 -0.081 -0.045 0 0 0.081 -0.043 0 0 0.036 0.043 0 0 0.174c0,0.06 0.033,0.087 0.078,0.087 0.024,-0.001 0.047,-0.009 0.069,-0.024l-0.013 -0.036zm0.355 0.057l0.044 0 -0.001 -0.201c0,-0.065 -0.042,-0.105 -0.117,-0.105 -0.052,0 -0.085,0.015 -0.124,0.041l0.019 0.033c0.032,-0.022 0.063,-0.034 0.096,-0.034 0.054,0 0.082,0.026 0.082,0.071l0 0.017 -0.1 0c-0.072,0.001 -0.114,0.035 -0.114,0.088 0,0.052 0.04,0.093 0.103,0.093 0.049,0 0.088,-0.017 0.112,-0.049l0 0.046zm-0.103 -0.037c-0.043,0 -0.07,-0.022 -0.07,-0.055 0,-0.034 0.027,-0.049 0.077,-0.049l0.095 0 0 0.036c-0.011,0.042 -0.051,0.068 -0.102,0.068zm0.38 0.037l0 -0.428 -0.045 0 0 0.428 0.045 0zm0.363 -0.404l0 0.404 0.173 0c0.091,0 0.145,-0.041 0.145,-0.109 0,-0.056 -0.034,-0.094 -0.092,-0.103 0.047,-0.009 0.075,-0.043 0.075,-0.091 0,-0.063 -0.05,-0.101 -0.131,-0.101l-0.17 0zm0.046 0.045l0.122 0c0.054,0 0.086,0.023 0.086,0.064 0,0.042 -0.032,0.066 -0.086,0.066l-0.122 0 0 -0.13zm0 0.173l0.122 0c0.066,0 0.104,0.026 0.104,0.07 0,0.046 -0.038,0.072 -0.104,0.072l-0.122 0 0 -0.142zm0.635 0.186l0.044 0 -0.001 -0.201c0,-0.065 -0.042,-0.105 -0.117,-0.105 -0.052,0 -0.085,0.015 -0.124,0.041l0.019 0.033c0.032,-0.022 0.063,-0.034 0.096,-0.034 0.054,0 0.082,0.026 0.082,0.071l0 0.017 -0.1 0c-0.072,0.001 -0.114,0.035 -0.114,0.088 0,0.052 0.04,0.093 0.103,0.093 0.049,0 0.088,-0.017 0.112,-0.049l0 0.046zm-0.103 -0.037c-0.043,0 -0.07,-0.022 -0.07,-0.055 0,-0.034 0.027,-0.049 0.078,-0.049l0.094 0 0 0.036c-0.011,0.042 -0.05,0.068 -0.102,0.068zm0.413 -0.269c-0.055,0 -0.105,0.025 -0.105,0.083 -0.001,0.108 0.169,0.07 0.168,0.144 -0.001,0.03 -0.03,0.043 -0.066,0.043 -0.035,0 -0.075,-0.015 -0.101,-0.039l-0.017 0.034c0.029,0.028 0.073,0.043 0.117,0.043 0.058,0 0.111,-0.027 0.111,-0.087 0,-0.109 -0.17,-0.074 -0.17,-0.142 0,-0.028 0.026,-0.04 0.06,-0.04 0.029,0 0.059,0.01 0.083,0.025l0.017 -0.036c-0.025,-0.017 -0.06,-0.028 -0.097,-0.028zm0.378 0.153l0.104 0.153 0.054 0 -0.126 -0.186 0.114 -0.118 -0.053 0 -0.157 0.156 0 -0.28 -0.045 0 0 0.428 0.045 0 0 -0.087 0.064 -0.066zm0.349 0.153l0 -0.304 -0.045 0 0 0.304 0.045 0zm0.768 0l0 -0.404 -0.056 0 -0.148 0.291 -0.147 -0.291 -0.058 0 0 0.404 0.044 0 0 -0.333 0.147 0.291 0.028 0 0.147 -0.291 0.001 0.333 0.042 0zm0.322 -0.305c-0.088,0 -0.15,0.063 -0.15,0.153 0,0.091 0.061,0.154 0.151,0.154 0.051,0 0.093,-0.018 0.122,-0.051l-0.025 -0.026c-0.023,0.024 -0.056,0.038 -0.094,0.038 -0.059,0 -0.102,-0.038 -0.11,-0.097l0.248 0c0.005,-0.104 -0.044,-0.172 -0.142,-0.171zm-0.106 0.134c0.007,-0.058 0.048,-0.095 0.106,-0.095 0.06,0 0.099,0.037 0.102,0.095l-0.208 0zm0.456 -0.133l-0.045 0 0 0.304 0.045 0 0 -0.161c0.005,-0.06 0.045,-0.1 0.109,-0.099l0 -0.046c-0.051,0.001 -0.089,0.025 -0.109,0.07l0 -0.068zm0.367 0.151l0.104 0.153 0.054 0 -0.126 -0.186 0.113 -0.118 -0.053 0 -0.156 0.156 0 -0.28 -0.045 0 0 0.428 0.045 0 0 -0.087 0.064 -0.066zm0.411 -0.152c-0.088,0 -0.151,0.063 -0.151,0.153 0,0.091 0.062,0.154 0.151,0.154 0.051,0 0.094,-0.018 0.123,-0.051l-0.025 -0.026c-0.024,0.024 -0.057,0.038 -0.094,0.038 -0.059,0 -0.102,-0.038 -0.11,-0.097l0.248 0c0.005,-0.104 -0.044,-0.172 -0.142,-0.171zm-0.106 0.134c0.007,-0.058 0.048,-0.095 0.106,-0.095 0.059,0 0.099,0.037 0.102,0.095l-0.208 0zm0.626 -0.099l0 -0.033 -0.24 -0.001 0 0.039 0.186 0.001 -0.191 0.23 0 0.034 0.25 0.001 0 -0.039 -0.196 -0.001 0.191 -0.231zm0.191 -0.152c-0.017,0 -0.03,0.013 -0.03,0.031 0,0.018 0.013,0.031 0.03,0.031 0.017,0 0.029,-0.013 0.029,-0.031 0,-0.018 -0.012,-0.031 -0.029,-0.031zm0.022 0.422l0 -0.304 -0.044 0 0 0.304 0.044 0z" />
    </g>
</svg>